<mxfile host="app.diagrams.net" agent="Mozilla/5.0 (Windows NT 10.0; Win64; x64; rv:135.0) Gecko/20100101 Firefox/135.0" version="26.0.16">
  <diagram name="Page-1" id="QS5Mz85oaNEiWpul6-S5">
    <mxGraphModel dx="1834" dy="820" grid="1" gridSize="10" guides="1" tooltips="1" connect="1" arrows="1" fold="1" page="0" pageScale="1" pageWidth="850" pageHeight="1100" math="0" shadow="1">
      <root>
        <mxCell id="0" />
        <mxCell id="1" parent="0" />
        <mxCell id="gR0rm1tbDsfKvDMnP-O4-3" style="edgeStyle=orthogonalEdgeStyle;rounded=0;orthogonalLoop=1;jettySize=auto;html=1;entryX=0.5;entryY=1;entryDx=0;entryDy=0;dashed=1;dashPattern=8 8;strokeColor=default;align=center;verticalAlign=middle;fontFamily=Helvetica;fontSize=11;fontColor=default;labelBackgroundColor=default;startSize=12;endArrow=block;endFill=0;endSize=12;curved=0;" parent="1" source="CVm5r9nSp5FHEXivWLYl-14" target="CVm5r9nSp5FHEXivWLYl-62" edge="1">
          <mxGeometry relative="1" as="geometry">
            <Array as="points">
              <mxPoint x="870" y="490" />
              <mxPoint x="600" y="490" />
            </Array>
          </mxGeometry>
        </mxCell>
        <mxCell id="CVm5r9nSp5FHEXivWLYl-14" value="Spora" style="swimlane;fontStyle=1;align=center;verticalAlign=top;childLayout=stackLayout;horizontal=1;startSize=26;horizontalStack=0;resizeParent=1;resizeParentMax=0;resizeLast=0;collapsible=1;marginBottom=0;whiteSpace=wrap;html=1;fontFamily=Lucida Console;labelBackgroundColor=none;" parent="1" vertex="1">
          <mxGeometry x="790" y="560" width="160" height="78" as="geometry" />
        </mxCell>
        <mxCell id="CVm5r9nSp5FHEXivWLYl-15" value="&lt;div&gt;- tapertek: Int&lt;/div&gt;&lt;div&gt;- hatas: Enumeration&lt;/div&gt;" style="text;strokeColor=none;fillColor=none;align=left;verticalAlign=top;spacingLeft=4;spacingRight=4;overflow=hidden;rotatable=0;points=[[0,0.5],[1,0.5]];portConstraint=eastwest;whiteSpace=wrap;html=1;fontFamily=Lucida Console;labelBackgroundColor=none;" parent="CVm5r9nSp5FHEXivWLYl-14" vertex="1">
          <mxGeometry y="26" width="160" height="44" as="geometry" />
        </mxCell>
        <mxCell id="CVm5r9nSp5FHEXivWLYl-16" value="" style="line;strokeWidth=1;fillColor=none;align=left;verticalAlign=middle;spacingTop=-1;spacingLeft=3;spacingRight=3;rotatable=0;labelPosition=right;points=[];portConstraint=eastwest;strokeColor=inherit;fontFamily=Lucida Console;labelBackgroundColor=none;" parent="CVm5r9nSp5FHEXivWLYl-14" vertex="1">
          <mxGeometry y="70" width="160" height="8" as="geometry" />
        </mxCell>
        <mxCell id="CVm5r9nSp5FHEXivWLYl-79" style="edgeStyle=orthogonalEdgeStyle;shape=connector;curved=0;rounded=0;orthogonalLoop=1;jettySize=auto;html=1;entryX=1;entryY=0.5;entryDx=0;entryDy=0;strokeColor=default;align=center;verticalAlign=middle;fontFamily=Helvetica;fontSize=11;fontColor=default;labelBackgroundColor=default;startSize=12;endArrow=diamond;endFill=1;endSize=12;" parent="1" source="CVm5r9nSp5FHEXivWLYl-22" target="CVm5r9nSp5FHEXivWLYl-56" edge="1">
          <mxGeometry relative="1" as="geometry" />
        </mxCell>
        <mxCell id="CVm5r9nSp5FHEXivWLYl-22" value="&lt;div&gt;Tekton&lt;/div&gt;" style="swimlane;fontStyle=1;align=center;verticalAlign=top;childLayout=stackLayout;horizontal=1;startSize=26;horizontalStack=0;resizeParent=1;resizeParentMax=0;resizeLast=0;collapsible=1;marginBottom=0;whiteSpace=wrap;html=1;fontFamily=Lucida Console;labelBackgroundColor=none;" parent="1" vertex="1">
          <mxGeometry x="165" y="140" width="210" height="130" as="geometry" />
        </mxCell>
        <mxCell id="CVm5r9nSp5FHEXivWLYl-23" value="&lt;div&gt;- elemek: List&amp;lt;TektonElem&amp;gt;&lt;/div&gt;&lt;div&gt;- hatas: Enumeration&lt;/div&gt;&lt;div&gt;- fonalAr: int&lt;/div&gt;" style="text;strokeColor=none;fillColor=none;align=left;verticalAlign=top;spacingLeft=4;spacingRight=4;overflow=hidden;rotatable=0;points=[[0,0.5],[1,0.5]];portConstraint=eastwest;whiteSpace=wrap;html=1;fontFamily=Lucida Console;labelBackgroundColor=none;" parent="CVm5r9nSp5FHEXivWLYl-22" vertex="1">
          <mxGeometry y="26" width="210" height="54" as="geometry" />
        </mxCell>
        <mxCell id="CVm5r9nSp5FHEXivWLYl-24" value="" style="line;strokeWidth=1;fillColor=none;align=left;verticalAlign=middle;spacingTop=-1;spacingLeft=3;spacingRight=3;rotatable=0;labelPosition=right;points=[];portConstraint=eastwest;strokeColor=inherit;fontFamily=Lucida Console;labelBackgroundColor=none;" parent="CVm5r9nSp5FHEXivWLYl-22" vertex="1">
          <mxGeometry y="80" width="210" height="8" as="geometry" />
        </mxCell>
        <mxCell id="CVm5r9nSp5FHEXivWLYl-25" value="&lt;div&gt;+ Szakad(): void&lt;/div&gt;&lt;div&gt;+ GetHatas(): Enumeration&lt;/div&gt;" style="text;strokeColor=none;fillColor=none;align=left;verticalAlign=top;spacingLeft=4;spacingRight=4;overflow=hidden;rotatable=0;points=[[0,0.5],[1,0.5]];portConstraint=eastwest;whiteSpace=wrap;html=1;fontFamily=Lucida Console;labelBackgroundColor=none;" parent="CVm5r9nSp5FHEXivWLYl-22" vertex="1">
          <mxGeometry y="88" width="210" height="42" as="geometry" />
        </mxCell>
        <mxCell id="CVm5r9nSp5FHEXivWLYl-60" style="edgeStyle=orthogonalEdgeStyle;shape=connector;rounded=0;orthogonalLoop=1;jettySize=auto;html=1;entryX=1;entryY=0.5;entryDx=0;entryDy=0;strokeColor=default;align=center;verticalAlign=middle;fontFamily=Lucida Console;fontSize=11;fontColor=default;labelBackgroundColor=none;startSize=12;endArrow=diamond;endFill=1;endSize=12;" parent="1" source="CVm5r9nSp5FHEXivWLYl-26" target="CVm5r9nSp5FHEXivWLYl-23" edge="1">
          <mxGeometry relative="1" as="geometry" />
        </mxCell>
        <mxCell id="CVm5r9nSp5FHEXivWLYl-26" value="TektonElem" style="swimlane;fontStyle=1;align=center;verticalAlign=top;childLayout=stackLayout;horizontal=1;startSize=26;horizontalStack=0;resizeParent=1;resizeParentMax=0;resizeLast=0;collapsible=1;marginBottom=0;whiteSpace=wrap;html=1;fontFamily=Lucida Console;labelBackgroundColor=none;" parent="1" vertex="1">
          <mxGeometry x="455" y="144" width="315" height="150" as="geometry" />
        </mxCell>
        <mxCell id="CVm5r9nSp5FHEXivWLYl-27" value="&lt;div&gt;- x: int&lt;/div&gt;&lt;div&gt;- y: int&lt;/div&gt;&lt;div&gt;- placeables: Map&amp;lt;String, IPlaceable&amp;gt;&lt;/div&gt;&lt;div&gt;- tekton: int&lt;/div&gt;" style="text;strokeColor=none;fillColor=none;align=left;verticalAlign=top;spacingLeft=4;spacingRight=4;overflow=hidden;rotatable=0;points=[[0,0.5],[1,0.5]];portConstraint=eastwest;whiteSpace=wrap;html=1;fontFamily=Lucida Console;labelBackgroundColor=none;" parent="CVm5r9nSp5FHEXivWLYl-26" vertex="1">
          <mxGeometry y="26" width="315" height="64" as="geometry" />
        </mxCell>
        <mxCell id="CVm5r9nSp5FHEXivWLYl-28" value="" style="line;strokeWidth=1;fillColor=none;align=left;verticalAlign=middle;spacingTop=-1;spacingLeft=3;spacingRight=3;rotatable=0;labelPosition=right;points=[];portConstraint=eastwest;strokeColor=inherit;fontFamily=Lucida Console;labelBackgroundColor=none;" parent="CVm5r9nSp5FHEXivWLYl-26" vertex="1">
          <mxGeometry y="90" width="315" height="8" as="geometry" />
        </mxCell>
        <mxCell id="pF2WCVojFg3_IeOcjBRI-1" value="&lt;div&gt;+ GetPlaceable(mit: String): IPlaceable&lt;/div&gt;&lt;div&gt;+ SetPlaceable(mit: String): void&lt;/div&gt;&lt;div&gt;+ RemovePlaceable(mit: String): void&lt;/div&gt;" style="text;strokeColor=none;fillColor=none;align=left;verticalAlign=top;spacingLeft=4;spacingRight=4;overflow=hidden;rotatable=0;points=[[0,0.5],[1,0.5]];portConstraint=eastwest;whiteSpace=wrap;html=1;fontFamily=Lucida Console;labelBackgroundColor=none;" vertex="1" parent="CVm5r9nSp5FHEXivWLYl-26">
          <mxGeometry y="98" width="315" height="52" as="geometry" />
        </mxCell>
        <mxCell id="CVm5r9nSp5FHEXivWLYl-75" style="edgeStyle=orthogonalEdgeStyle;shape=connector;curved=0;rounded=0;orthogonalLoop=1;jettySize=auto;html=1;entryX=0.5;entryY=0;entryDx=0;entryDy=0;strokeColor=default;align=center;verticalAlign=middle;fontFamily=Helvetica;fontSize=11;fontColor=default;labelBackgroundColor=default;startSize=12;endArrow=diamond;endFill=1;endSize=12;" parent="1" source="CVm5r9nSp5FHEXivWLYl-30" target="CVm5r9nSp5FHEXivWLYl-51" edge="1">
          <mxGeometry relative="1" as="geometry" />
        </mxCell>
        <mxCell id="CVm5r9nSp5FHEXivWLYl-30" value="Gomba" style="swimlane;fontStyle=1;align=center;verticalAlign=top;childLayout=stackLayout;horizontal=1;startSize=26;horizontalStack=0;resizeParent=1;resizeParentMax=0;resizeLast=0;collapsible=1;marginBottom=0;whiteSpace=wrap;html=1;fontFamily=Lucida Console;labelBackgroundColor=none;" parent="1" vertex="1">
          <mxGeometry x="280" y="760" width="240" height="90" as="geometry" />
        </mxCell>
        <mxCell id="CVm5r9nSp5FHEXivWLYl-31" value="&lt;div&gt;- gombaTestek: List&amp;lt;GombaTest&amp;gt;&lt;/div&gt;&lt;div&gt;&lt;br&gt;&lt;/div&gt;" style="text;strokeColor=none;fillColor=none;align=left;verticalAlign=top;spacingLeft=4;spacingRight=4;overflow=hidden;rotatable=0;points=[[0,0.5],[1,0.5]];portConstraint=eastwest;whiteSpace=wrap;html=1;fontFamily=Lucida Console;labelBackgroundColor=none;" parent="CVm5r9nSp5FHEXivWLYl-30" vertex="1">
          <mxGeometry y="26" width="240" height="26" as="geometry" />
        </mxCell>
        <mxCell id="CVm5r9nSp5FHEXivWLYl-32" value="" style="line;strokeWidth=1;fillColor=none;align=left;verticalAlign=middle;spacingTop=-1;spacingLeft=3;spacingRight=3;rotatable=0;labelPosition=right;points=[];portConstraint=eastwest;strokeColor=inherit;fontFamily=Lucida Console;labelBackgroundColor=none;" parent="CVm5r9nSp5FHEXivWLYl-30" vertex="1">
          <mxGeometry y="52" width="240" height="8" as="geometry" />
        </mxCell>
        <mxCell id="gR0rm1tbDsfKvDMnP-O4-8" value="+ SporaLo()" style="text;strokeColor=none;fillColor=none;align=left;verticalAlign=top;spacingLeft=4;spacingRight=4;overflow=hidden;rotatable=0;points=[[0,0.5],[1,0.5]];portConstraint=eastwest;whiteSpace=wrap;html=1;fontFamily=Lucida Console;labelBackgroundColor=none;" parent="CVm5r9nSp5FHEXivWLYl-30" vertex="1">
          <mxGeometry y="60" width="240" height="30" as="geometry" />
        </mxCell>
        <mxCell id="CVm5r9nSp5FHEXivWLYl-74" style="edgeStyle=orthogonalEdgeStyle;shape=connector;curved=0;rounded=0;orthogonalLoop=1;jettySize=auto;html=1;entryX=0.5;entryY=0;entryDx=0;entryDy=0;strokeColor=default;align=center;verticalAlign=middle;fontFamily=Helvetica;fontSize=11;fontColor=default;labelBackgroundColor=default;startSize=12;endArrow=diamond;endFill=1;endSize=12;" parent="1" source="CVm5r9nSp5FHEXivWLYl-34" target="CVm5r9nSp5FHEXivWLYl-30" edge="1">
          <mxGeometry relative="1" as="geometry">
            <Array as="points">
              <mxPoint x="600" y="720" />
              <mxPoint x="400" y="720" />
            </Array>
          </mxGeometry>
        </mxCell>
        <mxCell id="CVm5r9nSp5FHEXivWLYl-81" style="edgeStyle=orthogonalEdgeStyle;shape=connector;curved=0;rounded=0;orthogonalLoop=1;jettySize=auto;html=1;entryX=0.5;entryY=1;entryDx=0;entryDy=0;strokeColor=default;align=center;verticalAlign=middle;fontFamily=Helvetica;fontSize=11;fontColor=default;labelBackgroundColor=default;startSize=12;endArrow=block;endFill=0;endSize=12;dashed=1;dashPattern=8 8;" parent="1" source="CVm5r9nSp5FHEXivWLYl-34" target="CVm5r9nSp5FHEXivWLYl-62" edge="1">
          <mxGeometry relative="1" as="geometry" />
        </mxCell>
        <mxCell id="CVm5r9nSp5FHEXivWLYl-34" value="GombaTest" style="swimlane;fontStyle=1;align=center;verticalAlign=top;childLayout=stackLayout;horizontal=1;startSize=26;horizontalStack=0;resizeParent=1;resizeParentMax=0;resizeLast=0;collapsible=1;marginBottom=0;whiteSpace=wrap;html=1;fontFamily=Lucida Console;labelBackgroundColor=none;" parent="1" vertex="1">
          <mxGeometry x="515" y="560" width="170" height="138" as="geometry" />
        </mxCell>
        <mxCell id="CVm5r9nSp5FHEXivWLYl-35" value="&lt;div&gt;- elet: int&lt;/div&gt;&lt;div&gt;- _elhal: boolean&lt;/div&gt;&lt;div&gt;- sporaIdo: int&lt;/div&gt;&lt;div&gt;- sporak: List&amp;lt;Spora&amp;gt;&lt;/div&gt;" style="text;strokeColor=none;fillColor=none;align=left;verticalAlign=top;spacingLeft=4;spacingRight=4;overflow=hidden;rotatable=0;points=[[0,0.5],[1,0.5]];portConstraint=eastwest;whiteSpace=wrap;html=1;fontFamily=Lucida Console;labelBackgroundColor=none;" parent="CVm5r9nSp5FHEXivWLYl-34" vertex="1">
          <mxGeometry y="26" width="170" height="74" as="geometry" />
        </mxCell>
        <mxCell id="CVm5r9nSp5FHEXivWLYl-36" value="" style="line;strokeWidth=1;fillColor=none;align=left;verticalAlign=middle;spacingTop=-1;spacingLeft=3;spacingRight=3;rotatable=0;labelPosition=right;points=[];portConstraint=eastwest;strokeColor=inherit;fontFamily=Lucida Console;labelBackgroundColor=none;" parent="CVm5r9nSp5FHEXivWLYl-34" vertex="1">
          <mxGeometry y="100" width="170" height="8" as="geometry" />
        </mxCell>
        <mxCell id="gR0rm1tbDsfKvDMnP-O4-9" value="+ SporaLo()" style="text;strokeColor=none;fillColor=none;align=left;verticalAlign=top;spacingLeft=4;spacingRight=4;overflow=hidden;rotatable=0;points=[[0,0.5],[1,0.5]];portConstraint=eastwest;whiteSpace=wrap;html=1;fontFamily=Lucida Console;labelBackgroundColor=none;" parent="CVm5r9nSp5FHEXivWLYl-34" vertex="1">
          <mxGeometry y="108" width="170" height="30" as="geometry" />
        </mxCell>
        <mxCell id="CVm5r9nSp5FHEXivWLYl-73" style="edgeStyle=orthogonalEdgeStyle;shape=connector;curved=0;rounded=0;orthogonalLoop=1;jettySize=auto;html=1;entryX=0.5;entryY=0;entryDx=0;entryDy=0;strokeColor=default;align=center;verticalAlign=middle;fontFamily=Helvetica;fontSize=11;fontColor=default;labelBackgroundColor=default;startSize=12;endArrow=diamond;endFill=1;endSize=12;" parent="1" source="CVm5r9nSp5FHEXivWLYl-38" target="CVm5r9nSp5FHEXivWLYl-30" edge="1">
          <mxGeometry relative="1" as="geometry" />
        </mxCell>
        <mxCell id="CVm5r9nSp5FHEXivWLYl-80" style="edgeStyle=orthogonalEdgeStyle;shape=connector;curved=0;rounded=0;orthogonalLoop=1;jettySize=auto;html=1;entryX=0.5;entryY=1;entryDx=0;entryDy=0;strokeColor=default;align=center;verticalAlign=middle;fontFamily=Helvetica;fontSize=11;fontColor=default;labelBackgroundColor=default;startSize=12;endArrow=block;endFill=0;endSize=12;dashed=1;dashPattern=8 8;" parent="1" source="CVm5r9nSp5FHEXivWLYl-38" target="CVm5r9nSp5FHEXivWLYl-62" edge="1">
          <mxGeometry relative="1" as="geometry">
            <Array as="points">
              <mxPoint x="400" y="490" />
              <mxPoint x="600" y="490" />
            </Array>
          </mxGeometry>
        </mxCell>
        <mxCell id="CVm5r9nSp5FHEXivWLYl-38" value="Fonal" style="swimlane;fontStyle=1;align=center;verticalAlign=top;childLayout=stackLayout;horizontal=1;startSize=26;horizontalStack=0;resizeParent=1;resizeParentMax=0;resizeLast=0;collapsible=1;marginBottom=0;whiteSpace=wrap;html=1;fontFamily=Lucida Console;labelBackgroundColor=none;" parent="1" vertex="1">
          <mxGeometry x="320" y="560" width="160" height="34" as="geometry" />
        </mxCell>
        <mxCell id="CVm5r9nSp5FHEXivWLYl-40" value="" style="line;strokeWidth=1;fillColor=none;align=left;verticalAlign=middle;spacingTop=-1;spacingLeft=3;spacingRight=3;rotatable=0;labelPosition=right;points=[];portConstraint=eastwest;strokeColor=inherit;fontFamily=Lucida Console;labelBackgroundColor=none;" parent="CVm5r9nSp5FHEXivWLYl-38" vertex="1">
          <mxGeometry y="26" width="160" height="8" as="geometry" />
        </mxCell>
        <mxCell id="CVm5r9nSp5FHEXivWLYl-72" style="edgeStyle=orthogonalEdgeStyle;shape=connector;curved=0;rounded=0;orthogonalLoop=1;jettySize=auto;html=1;entryX=0.5;entryY=0;entryDx=0;entryDy=0;strokeColor=default;align=center;verticalAlign=middle;fontFamily=Helvetica;fontSize=11;fontColor=default;labelBackgroundColor=default;startSize=12;endArrow=diamond;endFill=1;endSize=12;" parent="1" source="CVm5r9nSp5FHEXivWLYl-42" target="CVm5r9nSp5FHEXivWLYl-46" edge="1">
          <mxGeometry relative="1" as="geometry" />
        </mxCell>
        <mxCell id="gR0rm1tbDsfKvDMnP-O4-7" style="edgeStyle=orthogonalEdgeStyle;shape=connector;curved=0;rounded=0;orthogonalLoop=1;jettySize=auto;html=1;entryX=0.5;entryY=1;entryDx=0;entryDy=0;strokeColor=default;align=center;verticalAlign=middle;fontFamily=Helvetica;fontSize=11;fontColor=default;labelBackgroundColor=default;startSize=12;endArrow=block;endFill=0;endSize=12;dashed=1;dashPattern=8 8;" parent="1" source="CVm5r9nSp5FHEXivWLYl-42" target="CVm5r9nSp5FHEXivWLYl-62" edge="1">
          <mxGeometry relative="1" as="geometry">
            <Array as="points">
              <mxPoint x="1120" y="490" />
              <mxPoint x="600" y="490" />
            </Array>
          </mxGeometry>
        </mxCell>
        <mxCell id="CVm5r9nSp5FHEXivWLYl-42" value="Rovar" style="swimlane;fontStyle=1;align=center;verticalAlign=top;childLayout=stackLayout;horizontal=1;startSize=26;horizontalStack=0;resizeParent=1;resizeParentMax=0;resizeLast=0;collapsible=1;marginBottom=0;whiteSpace=wrap;html=1;fontFamily=Lucida Console;labelBackgroundColor=none;" parent="1" vertex="1">
          <mxGeometry x="1040" y="560" width="160" height="60" as="geometry" />
        </mxCell>
        <mxCell id="CVm5r9nSp5FHEXivWLYl-44" value="" style="line;strokeWidth=1;fillColor=none;align=left;verticalAlign=middle;spacingTop=-1;spacingLeft=3;spacingRight=3;rotatable=0;labelPosition=right;points=[];portConstraint=eastwest;strokeColor=inherit;fontFamily=Lucida Console;labelBackgroundColor=none;" parent="CVm5r9nSp5FHEXivWLYl-42" vertex="1">
          <mxGeometry y="26" width="160" height="8" as="geometry" />
        </mxCell>
        <mxCell id="CVm5r9nSp5FHEXivWLYl-17" value="+ HatasAkt()" style="text;strokeColor=none;fillColor=none;align=left;verticalAlign=top;spacingLeft=4;spacingRight=4;overflow=hidden;rotatable=0;points=[[0,0.5],[1,0.5]];portConstraint=eastwest;whiteSpace=wrap;html=1;fontFamily=Lucida Console;labelBackgroundColor=none;" parent="CVm5r9nSp5FHEXivWLYl-42" vertex="1">
          <mxGeometry y="34" width="160" height="26" as="geometry" />
        </mxCell>
        <mxCell id="CVm5r9nSp5FHEXivWLYl-46" value="&lt;div&gt;Rovarasz&lt;/div&gt;" style="swimlane;fontStyle=1;align=center;verticalAlign=top;childLayout=stackLayout;horizontal=1;startSize=26;horizontalStack=0;resizeParent=1;resizeParentMax=0;resizeLast=0;collapsible=1;marginBottom=0;whiteSpace=wrap;html=1;fontFamily=Lucida Console;labelBackgroundColor=none;" parent="1" vertex="1">
          <mxGeometry x="1040" y="760" width="160" height="150" as="geometry" />
        </mxCell>
        <mxCell id="CVm5r9nSp5FHEXivWLYl-47" value="&lt;div&gt;- rovar: Rovar&lt;/div&gt;&lt;div&gt;- energia: int&lt;/div&gt;" style="text;strokeColor=none;fillColor=none;align=left;verticalAlign=top;spacingLeft=4;spacingRight=4;overflow=hidden;rotatable=0;points=[[0,0.5],[1,0.5]];portConstraint=eastwest;whiteSpace=wrap;html=1;fontFamily=Lucida Console;labelBackgroundColor=none;" parent="CVm5r9nSp5FHEXivWLYl-46" vertex="1">
          <mxGeometry y="26" width="160" height="44" as="geometry" />
        </mxCell>
        <mxCell id="CVm5r9nSp5FHEXivWLYl-48" value="" style="line;strokeWidth=1;fillColor=none;align=left;verticalAlign=middle;spacingTop=-1;spacingLeft=3;spacingRight=3;rotatable=0;labelPosition=right;points=[];portConstraint=eastwest;strokeColor=inherit;fontFamily=Lucida Console;labelBackgroundColor=none;" parent="CVm5r9nSp5FHEXivWLYl-46" vertex="1">
          <mxGeometry y="70" width="160" height="8" as="geometry" />
        </mxCell>
        <mxCell id="CVm5r9nSp5FHEXivWLYl-49" value="&lt;div&gt;+ Lepj()&lt;/div&gt;&lt;div&gt;+ Egyel()&lt;/div&gt;&lt;div&gt;+ FonalVag()&lt;/div&gt;&lt;div&gt;+ HatasAkt()&lt;/div&gt;" style="text;strokeColor=none;fillColor=none;align=left;verticalAlign=top;spacingLeft=4;spacingRight=4;overflow=hidden;rotatable=0;points=[[0,0.5],[1,0.5]];portConstraint=eastwest;whiteSpace=wrap;html=1;fontFamily=Lucida Console;labelBackgroundColor=none;" parent="CVm5r9nSp5FHEXivWLYl-46" vertex="1">
          <mxGeometry y="78" width="160" height="72" as="geometry" />
        </mxCell>
        <mxCell id="CVm5r9nSp5FHEXivWLYl-51" value="Gombasz" style="swimlane;fontStyle=1;align=center;verticalAlign=top;childLayout=stackLayout;horizontal=1;startSize=26;horizontalStack=0;resizeParent=1;resizeParentMax=0;resizeLast=0;collapsible=1;marginBottom=0;whiteSpace=wrap;html=1;fontFamily=Lucida Console;labelBackgroundColor=none;" parent="1" vertex="1">
          <mxGeometry x="300" y="900" width="200" height="118" as="geometry" />
        </mxCell>
        <mxCell id="CVm5r9nSp5FHEXivWLYl-52" value="- gomba: Gomba" style="text;strokeColor=none;fillColor=none;align=left;verticalAlign=top;spacingLeft=4;spacingRight=4;overflow=hidden;rotatable=0;points=[[0,0.5],[1,0.5]];portConstraint=eastwest;whiteSpace=wrap;html=1;fontFamily=Lucida Console;labelBackgroundColor=none;" parent="CVm5r9nSp5FHEXivWLYl-51" vertex="1">
          <mxGeometry y="26" width="200" height="24" as="geometry" />
        </mxCell>
        <mxCell id="CVm5r9nSp5FHEXivWLYl-53" value="" style="line;strokeWidth=1;fillColor=none;align=left;verticalAlign=middle;spacingTop=-1;spacingLeft=3;spacingRight=3;rotatable=0;labelPosition=right;points=[];portConstraint=eastwest;strokeColor=inherit;fontFamily=Lucida Console;labelBackgroundColor=none;" parent="CVm5r9nSp5FHEXivWLYl-51" vertex="1">
          <mxGeometry y="50" width="200" height="8" as="geometry" />
        </mxCell>
        <mxCell id="CVm5r9nSp5FHEXivWLYl-54" value="&lt;div&gt;+ FonalNov()&lt;/div&gt;&lt;div&gt;+ TestNov()&lt;/div&gt;&lt;div&gt;+ SporaLo()&lt;/div&gt;" style="text;strokeColor=none;fillColor=none;align=left;verticalAlign=top;spacingLeft=4;spacingRight=4;overflow=hidden;rotatable=0;points=[[0,0.5],[1,0.5]];portConstraint=eastwest;whiteSpace=wrap;html=1;fontFamily=Lucida Console;labelBackgroundColor=none;" parent="CVm5r9nSp5FHEXivWLYl-51" vertex="1">
          <mxGeometry y="58" width="200" height="60" as="geometry" />
        </mxCell>
        <mxCell id="CVm5r9nSp5FHEXivWLYl-55" value="Fungorium" style="swimlane;fontStyle=1;align=center;verticalAlign=top;childLayout=stackLayout;horizontal=1;startSize=26;horizontalStack=0;resizeParent=1;resizeParentMax=0;resizeLast=0;collapsible=1;marginBottom=0;whiteSpace=wrap;html=1;fontFamily=Lucida Console;labelBackgroundColor=none;" parent="1" vertex="1">
          <mxGeometry x="-104" y="167" width="190" height="80" as="geometry" />
        </mxCell>
        <mxCell id="CVm5r9nSp5FHEXivWLYl-56" value="- tektonok: List&amp;lt;Tekton&amp;gt;" style="text;strokeColor=none;fillColor=none;align=left;verticalAlign=top;spacingLeft=4;spacingRight=4;overflow=hidden;rotatable=0;points=[[0,0.5],[1,0.5]];portConstraint=eastwest;whiteSpace=wrap;html=1;fontFamily=Lucida Console;labelBackgroundColor=none;" parent="CVm5r9nSp5FHEXivWLYl-55" vertex="1">
          <mxGeometry y="26" width="190" height="24" as="geometry" />
        </mxCell>
        <mxCell id="CVm5r9nSp5FHEXivWLYl-57" value="" style="line;strokeWidth=1;fillColor=none;align=left;verticalAlign=middle;spacingTop=-1;spacingLeft=3;spacingRight=3;rotatable=0;labelPosition=right;points=[];portConstraint=eastwest;strokeColor=inherit;fontFamily=Lucida Console;labelBackgroundColor=none;" parent="CVm5r9nSp5FHEXivWLYl-55" vertex="1">
          <mxGeometry y="50" width="190" height="8" as="geometry" />
        </mxCell>
        <mxCell id="pF2WCVojFg3_IeOcjBRI-2" value="+ AddTekton(t: Tekton)" style="text;strokeColor=none;fillColor=none;align=left;verticalAlign=top;spacingLeft=4;spacingRight=4;overflow=hidden;rotatable=0;points=[[0,0.5],[1,0.5]];portConstraint=eastwest;whiteSpace=wrap;html=1;fontFamily=Lucida Console;labelBackgroundColor=none;" vertex="1" parent="CVm5r9nSp5FHEXivWLYl-55">
          <mxGeometry y="58" width="190" height="22" as="geometry" />
        </mxCell>
        <mxCell id="CVm5r9nSp5FHEXivWLYl-66" style="edgeStyle=orthogonalEdgeStyle;shape=connector;rounded=0;orthogonalLoop=1;jettySize=auto;html=1;entryX=0.5;entryY=1;entryDx=0;entryDy=0;strokeColor=default;align=center;verticalAlign=middle;fontFamily=Helvetica;fontSize=11;fontColor=default;labelBackgroundColor=none;startSize=12;endArrow=diamond;endFill=1;endSize=12;curved=0;" parent="1" source="CVm5r9nSp5FHEXivWLYl-62" target="CVm5r9nSp5FHEXivWLYl-26" edge="1">
          <mxGeometry relative="1" as="geometry" />
        </mxCell>
        <mxCell id="CVm5r9nSp5FHEXivWLYl-62" value="&lt;div&gt;&amp;lt;&amp;lt;interface&amp;gt;&amp;gt;&lt;/div&gt;&lt;div&gt;IPlaceable&lt;/div&gt;" style="swimlane;fontStyle=1;align=center;verticalAlign=top;childLayout=stackLayout;horizontal=1;startSize=36;horizontalStack=0;resizeParent=1;resizeParentMax=0;resizeLast=0;collapsible=1;marginBottom=0;whiteSpace=wrap;html=1;fontFamily=Lucida Console;fontSize=11;fontColor=default;labelBackgroundColor=none;" parent="1" vertex="1">
          <mxGeometry x="520" y="364" width="160" height="44" as="geometry" />
        </mxCell>
        <mxCell id="CVm5r9nSp5FHEXivWLYl-64" value="" style="line;strokeWidth=1;fillColor=none;align=left;verticalAlign=middle;spacingTop=-1;spacingLeft=3;spacingRight=3;rotatable=0;labelPosition=right;points=[];portConstraint=eastwest;strokeColor=inherit;fontFamily=Lucida Console;fontSize=11;fontColor=default;labelBackgroundColor=none;" parent="CVm5r9nSp5FHEXivWLYl-62" vertex="1">
          <mxGeometry y="36" width="160" height="8" as="geometry" />
        </mxCell>
        <mxCell id="gR0rm1tbDsfKvDMnP-O4-5" style="edgeStyle=orthogonalEdgeStyle;shape=connector;curved=0;rounded=0;orthogonalLoop=1;jettySize=auto;html=1;exitX=0;exitY=0.5;exitDx=0;exitDy=0;strokeColor=default;align=center;verticalAlign=middle;fontFamily=Helvetica;fontSize=11;fontColor=default;labelBackgroundColor=default;startSize=12;endArrow=diamond;endFill=1;endSize=12;entryX=1.016;entryY=0.304;entryDx=0;entryDy=0;entryPerimeter=0;" parent="1" source="CVm5r9nSp5FHEXivWLYl-15" target="CVm5r9nSp5FHEXivWLYl-35" edge="1">
          <mxGeometry relative="1" as="geometry">
            <mxPoint x="710" y="580" as="targetPoint" />
          </mxGeometry>
        </mxCell>
        <mxCell id="pF2WCVojFg3_IeOcjBRI-3" value="&lt;div&gt;&amp;lt;&amp;lt;enumeration&amp;gt;&amp;gt;&lt;/div&gt;&lt;div&gt;TektonHatas&lt;/div&gt;" style="swimlane;fontStyle=0;childLayout=stackLayout;horizontal=1;startSize=32;fillColor=none;horizontalStack=0;resizeParent=1;resizeParentMax=0;resizeLast=0;collapsible=1;marginBottom=0;whiteSpace=wrap;html=1;" vertex="1" parent="1">
          <mxGeometry x="200" y="364" width="140" height="136" as="geometry" />
        </mxCell>
        <mxCell id="pF2WCVojFg3_IeOcjBRI-4" value="+ FELSZIVODO" style="text;strokeColor=none;fillColor=none;align=left;verticalAlign=top;spacingLeft=4;spacingRight=4;overflow=hidden;rotatable=0;points=[[0,0.5],[1,0.5]];portConstraint=eastwest;whiteSpace=wrap;html=1;" vertex="1" parent="pF2WCVojFg3_IeOcjBRI-3">
          <mxGeometry y="32" width="140" height="26" as="geometry" />
        </mxCell>
        <mxCell id="pF2WCVojFg3_IeOcjBRI-5" value="+ KERESZTEZODO" style="text;strokeColor=none;fillColor=none;align=left;verticalAlign=top;spacingLeft=4;spacingRight=4;overflow=hidden;rotatable=0;points=[[0,0.5],[1,0.5]];portConstraint=eastwest;whiteSpace=wrap;html=1;" vertex="1" parent="pF2WCVojFg3_IeOcjBRI-3">
          <mxGeometry y="58" width="140" height="26" as="geometry" />
        </mxCell>
        <mxCell id="pF2WCVojFg3_IeOcjBRI-6" value="&lt;div&gt;+ EGYFONAL&lt;/div&gt;" style="text;strokeColor=none;fillColor=none;align=left;verticalAlign=top;spacingLeft=4;spacingRight=4;overflow=hidden;rotatable=0;points=[[0,0.5],[1,0.5]];portConstraint=eastwest;whiteSpace=wrap;html=1;" vertex="1" parent="pF2WCVojFg3_IeOcjBRI-3">
          <mxGeometry y="84" width="140" height="26" as="geometry" />
        </mxCell>
        <mxCell id="pF2WCVojFg3_IeOcjBRI-7" value="+ NEMTEST" style="text;strokeColor=none;fillColor=none;align=left;verticalAlign=top;spacingLeft=4;spacingRight=4;overflow=hidden;rotatable=0;points=[[0,0.5],[1,0.5]];portConstraint=eastwest;whiteSpace=wrap;html=1;" vertex="1" parent="pF2WCVojFg3_IeOcjBRI-3">
          <mxGeometry y="110" width="140" height="26" as="geometry" />
        </mxCell>
        <mxCell id="pF2WCVojFg3_IeOcjBRI-8" style="edgeStyle=orthogonalEdgeStyle;rounded=0;orthogonalLoop=1;jettySize=auto;html=1;entryX=0.5;entryY=1;entryDx=0;entryDy=0;entryPerimeter=0;startSize=12;endSize=12;endArrow=open;endFill=0;" edge="1" parent="1" source="pF2WCVojFg3_IeOcjBRI-3" target="CVm5r9nSp5FHEXivWLYl-25">
          <mxGeometry relative="1" as="geometry" />
        </mxCell>
      </root>
    </mxGraphModel>
  </diagram>
</mxfile>
